<svg width="51.7" height="67.9" viewBox="0 0 51.7 67.9" xmlns="http://www.w3.org/2000/svg"><g id="svgGroup" stroke-linecap="round" fill-rule="evenodd" font-size="9pt" stroke="#4078f2" stroke-width="0.25mm" fill="#4078f2" style="stroke:#4078f2;stroke-width:0.25mm;fill:#4078f2"><path d="M 50.8 66.3 L 39 66.3 A 15.875 15.875 0 0 1 38.594 65.938 Q 37.965 65.359 36.906 64.305 A 143.186 143.186 0 0 1 36.65 64.05 A 142.1 142.1 0 0 1 33.877 61.201 A 129.404 129.404 0 0 1 33.5 60.8 A 32.809 32.809 0 0 1 30.481 57.149 A 29.695 29.695 0 0 1 30 56.45 A 81.507 81.507 0 0 1 29.206 55.234 Q 28.127 53.551 26.756 51.264 A 250.478 250.478 0 0 1 26.3 50.5 A 1.811 1.811 0 0 1 26.135 50.228 Q 25.982 49.923 25.843 49.445 A 9.376 9.376 0 0 1 25.75 49.1 Q 25.553 48.31 25.324 47.895 A 1.652 1.652 0 0 0 25.2 47.7 A 9.106 9.106 0 0 0 20.408 44.419 Q 18.831 43.935 16.906 43.83 A 20.158 20.158 0 0 0 15.8 43.8 A 0.477 0.477 0 0 0 15.46 43.94 A 0.627 0.627 0 0 0 15.45 43.95 Q 15.3 44.1 15.3 44.2 Q 15.919 50.113 16.514 54.772 A 270.63 270.63 0 0 0 17.05 58.75 Q 17.845 64.318 18.159 65.901 A 13.19 13.19 0 0 0 18.2 66.1 Q 18.2 67.9 17.3 67.9 A 14.351 14.351 0 0 1 15.051 67.717 A 16.489 16.489 0 0 1 14.4 67.6 A 13.653 13.653 0 0 0 13.999 67.527 Q 13.625 67.463 13.15 67.4 Q 12.505 67.314 11.676 67.302 A 18.963 18.963 0 0 0 11.4 67.3 A 28.815 28.815 0 0 0 7.562 67.564 A 31.619 31.619 0 0 0 7.3 67.6 Q 6.6 67.7 5.35 67.8 A 33.841 33.841 0 0 1 4.198 67.873 Q 3.652 67.898 3.165 67.9 A 20.293 20.293 0 0 1 3.1 67.9 A 1.854 1.854 0 0 1 2.831 67.882 Q 2.379 67.816 2.3 67.5 Q 2.205 66.55 2.065 65.103 A 1464.385 1464.385 0 0 1 2.05 64.95 Q 1.949 63.909 1.916 63.115 A 17.263 17.263 0 0 1 1.9 62.4 Q 1.8 57.5 1.5 51.35 Q 1.253 46.287 1.142 43.765 A 387.744 387.744 0 0 1 1.1 42.8 Q 0.307 25.952 0.3 17.649 A 175.052 175.052 0 0 1 0.3 17.5 A 6.566 6.566 0 0 1 0.339 16.816 Q 0.419 16.054 0.664 15.045 A 21.806 21.806 0 0 1 0.7 14.9 Q 1.1 13.1 1.1 11.8 Q 1.1 11.1 0.95 10.25 A 13.911 13.911 0 0 1 0.871 9.753 Q 0.8 9.244 0.8 8.9 A 1.984 1.984 0 0 1 0.85 8.446 A 1.45 1.45 0 0 1 1.1 7.9 L 1.1 4.3 A 2.131 2.131 0 0 1 0.619 4.12 A 1.403 1.403 0 0 1 0 3.5 A 2.787 2.787 0 0 1 0.823 2.74 Q 1.488 2.325 2.5 2.1 Q 3.709 1.831 5.415 1.653 A 50.787 50.787 0 0 1 7.2 1.5 A 3.275 3.275 0 0 0 7.423 1.49 Q 7.906 1.456 9 1.3 A 11.662 11.662 0 0 0 9.483 1.221 Q 10.181 1.091 10.456 0.926 A 0.447 0.447 0 0 0 10.6 0.8 Q 10.9 0.4 12.3 0.2 A 20.375 20.375 0 0 1 15.013 0.001 A 22.362 22.362 0 0 1 15.2 0 A 15.425 15.425 0 0 1 17.022 0.116 Q 17.907 0.221 18.888 0.423 A 29.614 29.614 0 0 1 20.1 0.7 Q 20.847 0.793 21.768 0.974 A 34.638 34.638 0 0 1 21.9 1 Q 22.9 1.2 24.1 1.3 A 92.91 92.91 0 0 1 28.103 1.64 Q 31.675 2.027 34.3 2.65 A 14.605 14.605 0 0 1 41.009 6.321 A 17.496 17.496 0 0 1 41.4 6.7 A 3.648 3.648 0 0 1 41.691 7.11 Q 42.35 8.153 43.727 11.101 A 136.523 136.523 0 0 1 43.75 11.15 A 136.484 136.484 0 0 1 44.352 12.456 Q 45.538 15.069 45.7 15.8 Q 46.3 18.2 46.65 20.35 A 490.482 490.482 0 0 1 46.732 20.855 Q 46.971 22.331 46.997 22.562 A 0.421 0.421 0 0 1 47 22.6 Q 47 26.7 45.1 30.35 A 19.616 19.616 0 0 1 39.906 36.615 A 22.418 22.418 0 0 1 39.8 36.7 A 0.763 0.763 0 0 1 39.741 36.748 Q 39.413 37 37.4 38.4 A 165.255 165.255 0 0 0 36.838 38.777 Q 35.159 39.906 35.014 40.076 A 0.047 0.047 0 0 0 35 40.1 Q 39.6 46 44.1 53.6 L 45.5 56 Q 45.7 56.3 46.6 57.95 A 17.1 17.1 0 0 0 48.035 60.145 A 20.668 20.668 0 0 0 48.9 61.2 Q 49.07 61.37 50.038 62.446 A 403.832 403.832 0 0 1 50.4 62.85 Q 51.7 64.3 51.7 65.3 Q 51.602 65.497 51.262 65.887 A 9.963 9.963 0 0 1 51.25 65.9 Q 50.9 66.3 50.8 66.3 Z M 20.8 32 L 24.6 32.1 Q 28.4 32.1 31.35 30.7 A 6.274 6.274 0 0 0 32.842 29.737 A 4.263 4.263 0 0 0 34.3 26.4 A 17.02 17.02 0 0 0 34.197 24.619 Q 33.987 22.629 33.344 19.98 A 57.77 57.77 0 0 0 33.25 19.6 A 21.102 21.102 0 0 0 32.848 18.186 Q 32.187 16.158 31.404 15.606 A 1.036 1.036 0 0 0 30.8 15.4 A 10.638 10.638 0 0 1 30.237 15.386 Q 29.395 15.341 29.05 15.15 Q 28.6 14.9 28.3 14.3 A 1.639 1.639 0 0 0 27.758 13.687 Q 27.549 13.54 27.278 13.431 A 3.099 3.099 0 0 0 27.2 13.4 Q 26.872 13.318 26.039 13.169 A 75.868 75.868 0 0 0 25.65 13.1 A 3.466 3.466 0 0 1 25.062 12.948 Q 24.746 12.833 24.515 12.662 A 1.497 1.497 0 0 1 24.1 12.2 A 0.475 0.475 0 0 0 24.048 12.264 Q 23.963 12.386 23.85 12.65 Q 23.756 12.87 23.602 12.952 A 0.424 0.424 0 0 1 23.4 13 A 0.63 0.63 0 0 1 23.124 12.944 Q 22.8 12.788 22.8 12.2 A 108.855 108.855 0 0 0 20.097 12.231 Q 17.571 12.294 15.845 12.484 A 19.87 19.87 0 0 0 14.35 12.7 A 11.919 11.919 0 0 0 12.257 13.314 Q 10.425 14.025 8.3 15.4 L 7.8 15 A 4.725 4.725 0 0 1 8.016 14.799 Q 8.287 14.56 8.7 14.25 A 10.967 10.967 0 0 0 8.889 14.106 Q 9.227 13.84 9.287 13.737 A 0.079 0.079 0 0 0 9.3 13.7 L 9.15 13.6 Q 9.029 13.519 9.006 13.439 A 0.138 0.138 0 0 1 9 13.4 L 3.1 16.2 Q 2.6 16.4 2.45 17.4 A 54.404 54.404 0 0 0 2.399 17.747 Q 2.3 18.438 2.3 18.6 A 4.948 4.948 0 0 0 3.054 18.546 Q 3.448 18.485 3.767 18.355 A 2.202 2.202 0 0 0 4.3 18.05 A 5.5 5.5 0 0 0 4.855 17.544 Q 5.122 17.267 5.396 16.922 A 11.787 11.787 0 0 0 5.75 16.45 Q 6.355 15.602 6.798 15.178 A 3.033 3.033 0 0 1 7 15 L 7.5 15.8 L 4.7 18.9 A 1.242 1.242 0 0 0 5.044 18.77 Q 5.346 18.607 5.694 18.261 A 5.509 5.509 0 0 0 5.85 18.1 A 4.846 4.846 0 0 1 6.185 17.77 Q 6.537 17.459 6.838 17.346 A 1.061 1.061 0 0 1 7 17.3 L 7 17.8 A 4.23 4.23 0 0 1 9.951 15.98 A 6.577 6.577 0 0 1 11 15.9 L 10.9 16.4 L 8.9 17.4 A 86.461 86.461 0 0 0 7.21 18.178 Q 5.599 18.943 4.503 19.563 A 23.674 23.674 0 0 0 4.35 19.65 A 12.954 12.954 0 0 0 3.789 19.99 Q 2.7 20.694 2.7 21.1 L 2.8 22.15 A 12.031 12.031 0 0 0 2.856 22.641 Q 2.927 23.158 3.03 23.498 A 2.468 2.468 0 0 0 3.1 23.7 A 37.932 37.932 0 0 1 4.287 22.561 Q 4.887 22.011 5.445 21.555 A 21.426 21.426 0 0 1 5.7 21.35 Q 6.9 20.4 7.8 20.1 Q 8.2 18.9 9.8 18 Q 11 17.2 11.4 16.6 A 1.677 1.677 0 0 0 11.494 16.359 Q 11.623 15.953 11.728 15.172 A 18.276 18.276 0 0 0 11.75 15 Q 11.844 14.249 12.114 13.968 A 0.517 0.517 0 0 1 12.5 13.8 A 1.234 1.234 0 0 1 13.134 13.958 Q 13.609 14.236 13.8 15 A 2.621 2.621 0 0 0 13.766 15.265 Q 13.712 15.875 13.702 17.467 A 121.435 121.435 0 0 0 13.7 18.2 Q 13.7 19.1 14.3 23.5 A 187.28 187.28 0 0 1 14.534 25.447 Q 14.836 28.087 14.889 29.4 A 12.519 12.519 0 0 1 14.9 29.9 A 0.621 0.621 0 0 1 15.071 29.937 Q 15.475 30.068 16.606 30.661 A 56.219 56.219 0 0 1 17.15 30.95 Q 18.821 31.85 20.309 31.979 A 5.699 5.699 0 0 0 20.8 32 Z M 22.4 42.7 L 22.8 41.4 Q 22.227 41.4 21.334 41.583 A 14.847 14.847 0 0 0 21.25 41.6 A 14.718 14.718 0 0 1 20.751 41.697 Q 20.298 41.776 19.981 41.794 A 3.114 3.114 0 0 1 19.8 41.8 Q 19.8 40.5 21.45 39.5 A 25.778 25.778 0 0 1 22.708 38.789 Q 23.368 38.438 24.141 38.066 A 59.899 59.899 0 0 1 25.8 37.3 Q 26.168 37.116 27.046 36.72 A 122.466 122.466 0 0 1 27.2 36.65 Q 28.012 36.285 28.231 36.018 A 0.38 0.38 0 0 0 28.3 35.9 A 0.453 0.453 0 0 1 27.991 35.631 Q 27.906 35.446 27.9 35.142 A 2.356 2.356 0 0 1 27.9 35.1 A 1.83 1.83 0 0 1 27.914 34.862 Q 27.948 34.607 28.062 34.492 A 0.322 0.322 0 0 1 28.3 34.4 A 1.619 1.619 0 0 1 28.677 34.44 Q 29.182 34.562 29.278 35.052 A 1.301 1.301 0 0 1 29.3 35.3 A 1.948 1.948 0 0 0 29.817 35.221 Q 30.326 35.079 31.008 34.685 A 11.387 11.387 0 0 0 31.55 34.35 Q 32.907 33.461 33.257 33.229 A 26.455 26.455 0 0 0 33.3 33.2 Q 34.039 32.595 35.139 31.9 A 35.23 35.23 0 0 1 36.3 31.2 A 4.853 4.853 0 0 0 34.723 31.473 A 6.342 6.342 0 0 0 33.85 31.85 Q 32.6 32.5 31.9 32.8 A 16.634 16.634 0 0 1 30.637 33.227 Q 29.274 33.634 27.346 34.023 A 64.137 64.137 0 0 1 26.7 34.15 Q 23.3 34.8 21.1 34.8 A 10.096 10.096 0 0 1 20.742 34.794 Q 20.245 34.776 20.016 34.705 A 0.835 0.835 0 0 1 20 34.7 A 26.644 26.644 0 0 1 16.558 36.581 A 30.476 30.476 0 0 1 15.6 37 Q 15.4 37.1 13.6 38.3 Q 12.4 39.3 10.9 39.8 L 10.9 39 Q 12.436 38.368 14.828 37.001 A 76.103 76.103 0 0 0 15.35 36.7 A 39.855 39.855 0 0 0 16.299 36.132 Q 18.175 34.969 18.5 34.4 Q 18.3 34.1 17.8 33.85 A 3.714 3.714 0 0 0 17.535 33.729 Q 17.216 33.6 17 33.6 A 0.76 0.76 0 0 0 16.779 33.648 Q 16.296 33.809 15.071 34.515 A 48.129 48.129 0 0 0 14.5 34.85 Q 12.4 36.1 10.7 37.8 Q 9 39.5 9 41.1 Q 11.7 40.6 14.5 39.7 Q 16.911 38.925 17.839 38.446 A 3.661 3.661 0 0 0 18.1 38.3 L 23.6 35.9 A 0.269 0.269 0 0 1 23.691 35.811 Q 23.936 35.644 24.791 35.379 A 21.135 21.135 0 0 1 25.05 35.3 Q 26.084 34.994 26.795 34.805 A 28.43 28.43 0 0 1 27.2 34.7 L 27.3 35.1 A 0.624 0.624 0 0 1 27.144 35.475 Q 26.675 36.075 24.8 36.9 A 56.752 56.752 0 0 1 23.394 37.494 Q 21.782 38.151 19.506 38.995 A 251.391 251.391 0 0 1 17.3 39.8 Q 13.616 41.089 11.968 41.785 A 22.399 22.399 0 0 0 11.7 41.9 Q 11.539 41.981 11.085 42.418 A 18.908 18.908 0 0 0 10.85 42.65 A 19.988 19.988 0 0 0 10.398 43.116 Q 10.183 43.345 10.006 43.552 A 9.379 9.379 0 0 0 9.8 43.8 Q 10.9 43.8 12 43.15 A 27.353 27.353 0 0 1 12.648 42.778 Q 13.274 42.431 13.735 42.228 A 7.394 7.394 0 0 1 13.8 42.2 Q 16.4 42.4 18.9 42.55 A 165.565 165.565 0 0 0 20.052 42.615 Q 21.649 42.7 22.4 42.7 Z M 4.2 14.2 L 5.1 14.2 L 7.7 12.6 Q 9.418 11.455 10.589 10.947 A 8.497 8.497 0 0 1 10.7 10.9 A 5.139 5.139 0 0 1 11.557 10.636 Q 12.47 10.433 13.766 10.405 A 19.727 19.727 0 0 1 14.2 10.4 A 1.394 1.394 0 0 0 14.238 10.399 Q 14.407 10.394 15.146 10.355 A 321.151 321.151 0 0 0 15.25 10.35 A 13.251 13.251 0 0 1 15.613 10.338 Q 17.215 10.302 24.213 10.3 A 3003.435 3003.435 0 0 1 25.2 10.3 A 2.174 2.174 0 0 0 26.589 9.8 A 2.751 2.751 0 0 0 26.65 9.75 A 7.577 7.577 0 0 0 27.148 9.285 Q 27.399 9.031 27.669 8.719 A 17.251 17.251 0 0 0 28.1 8.2 A 8.975 8.975 0 0 1 29.099 7.072 A 7.998 7.998 0 0 1 29.4 6.8 Q 29.949 6.329 30.499 6.228 A 1.658 1.658 0 0 1 30.8 6.2 A 0.58 0.58 0 0 0 30.747 5.963 Q 30.713 5.886 30.658 5.81 A 1.026 1.026 0 0 0 30.65 5.8 A 0.618 0.618 0 0 0 30.551 5.695 A 0.384 0.384 0 0 0 30.3 5.6 A 27.359 27.359 0 0 0 27.05 7.164 A 30.95 30.95 0 0 0 26.3 7.6 A 37.517 37.517 0 0 1 24.913 8.34 Q 22.923 9.345 21.895 9.479 A 2.284 2.284 0 0 1 21.6 9.5 A 1.102 1.102 0 0 1 21.294 9.46 A 0.733 0.733 0 0 1 20.8 9 Q 21.7 8.1 22.75 7.45 A 196.784 196.784 0 0 0 23.173 7.187 Q 23.866 6.756 24.1 6.6 A 36.44 36.44 0 0 0 25.394 5.731 Q 26.74 4.782 27.54 3.993 A 7.506 7.506 0 0 0 28 3.5 A 2.356 2.356 0 0 0 27.492 3.559 Q 27.262 3.609 27.015 3.704 A 4.213 4.213 0 0 0 26.9 3.75 A 4.461 4.461 0 0 1 26.545 3.882 Q 26.187 3.996 25.918 4 A 1.301 1.301 0 0 1 25.9 4 L 25.6 3.9 L 20.8 6.3 A 63.957 63.957 0 0 1 20.343 6.526 Q 19.668 6.857 18.477 7.428 A 691.392 691.392 0 0 1 17.7 7.8 A 39.838 39.838 0 0 1 16.897 8.174 Q 15.289 8.899 14.801 8.9 Q 14.8 7.997 15.137 7.599 A 0.859 0.859 0 0 1 15.3 7.45 A 2.401 2.401 0 0 1 15.702 7.228 Q 16.114 7.044 16.716 6.917 A 8.243 8.243 0 0 1 16.8 6.9 Q 17.8 6.7 18.1 6.3 Q 18.3 6 18.95 5.45 A 7.621 7.621 0 0 0 19.682 4.745 A 6.309 6.309 0 0 0 20.05 4.3 A 2.564 2.564 0 0 0 20.329 3.841 Q 20.484 3.505 20.498 3.169 A 1.601 1.601 0 0 0 20.5 3.1 L 18 4 L 15.8 4.7 L 15.8 3.9 A 5.057 5.057 0 0 0 16.242 3.727 Q 16.692 3.528 17.25 3.2 Q 18.037 2.737 18.438 2.36 A 2.79 2.79 0 0 0 18.5 2.3 L 18.1 2.4 Q 17.745 2.4 17.154 2.203 A 7.545 7.545 0 0 1 17 2.15 Q 16.505 1.973 16.109 1.921 A 2.389 2.389 0 0 0 15.8 1.9 A 268.982 268.982 0 0 0 15.393 2.249 Q 14.652 2.888 13.25 4.1 Q 11.4 5.7 11.3 5.9 A 2.957 2.957 0 0 0 12.353 5.718 A 2.657 2.657 0 0 0 13.3 5.1 A 0.222 0.222 0 0 1 13.345 5.173 Q 13.4 5.305 13.4 5.6 Q 13.4 6.071 11.401 7.386 A 31.517 31.517 0 0 1 11.15 7.55 A 34.723 34.723 0 0 1 10.364 8.043 Q 8.788 9 8.3 9 Q 8 10 6.2 12 Q 4.501 13.888 4.228 14.172 A 2.133 2.133 0 0 1 4.2 14.2 Z M 10.2 64.3 L 6.2 64.3 Q 7.272 63.458 9.164 62.205 A 111.151 111.151 0 0 1 10.4 61.4 Q 13.095 59.667 14.401 58.861 A 75.935 75.935 0 0 1 14.5 58.8 A 6.098 6.098 0 0 0 12.996 58.981 A 5.462 5.462 0 0 0 12.45 59.15 A 12.57 12.57 0 0 0 11.688 59.462 Q 11.013 59.763 10.2 60.2 A 30.504 30.504 0 0 1 9.354 60.64 Q 8.972 60.83 8.634 60.983 A 13.139 13.139 0 0 1 8 61.25 A 5.148 5.148 0 0 1 6.668 61.566 A 6.37 6.37 0 0 1 6 61.6 A 0.477 0.477 0 0 1 5.66 61.46 A 0.627 0.627 0 0 1 5.65 61.45 Q 5.5 61.3 5.5 61.2 A 4.122 4.122 0 0 1 5.974 60.715 Q 6.864 59.923 8.85 58.709 A 59.214 59.214 0 0 1 9.7 58.2 Q 11.538 57.052 12.672 56.284 A 35.967 35.967 0 0 0 13.3 55.85 A 5.922 5.922 0 0 0 13.768 55.485 Q 14.237 55.076 14.406 54.704 A 0.976 0.976 0 0 0 14.5 54.3 L 14.1 50.2 Q 13.7 50.2 13.7 50.7 Q 13.7 51.126 12.722 51.986 A 12.95 12.95 0 0 1 12.35 52.3 A 139.367 139.367 0 0 1 11.881 52.681 Q 10.944 53.438 10.7 53.6 A 80.329 80.329 0 0 0 9.867 54.233 Q 8.589 55.217 8.054 55.733 A 3.489 3.489 0 0 0 7.8 56 L 9.8 55.2 L 9.8 56 Q 10.6 55.3 11.55 55 Q 12.457 54.714 13.955 54.427 A 43.066 43.066 0 0 1 14.1 54.4 A 0.153 0.153 0 0 1 14.03 54.478 Q 13.609 54.796 10.675 56.119 A 218.247 218.247 0 0 1 9.6 56.6 A 249.425 249.425 0 0 1 8.539 57.069 Q 5.123 58.568 4.716 58.599 A 0.21 0.21 0 0 1 4.7 58.6 L 4.7 65.9 Q 5.7 65.9 9.15 65.85 Q 12.6 65.8 15.8 65.1 Q 15.8 64.75 15.456 63.866 A 16.32 16.32 0 0 0 15.35 63.6 Q 14.9 62.5 14.6 62.5 A 1.748 1.748 0 0 0 14.194 62.556 Q 13.567 62.709 12.527 63.274 A 18.244 18.244 0 0 0 12.3 63.4 A 8.757 8.757 0 0 1 11.681 63.794 Q 10.8 64.3 10.2 64.3 Z M 40.2 51.3 L 37.1 53.6 L 35.8 53.6 A 0.639 0.639 0 0 1 35.94 53.223 Q 36.25 52.798 37.25 52.35 A 16.862 16.862 0 0 0 37.753 52.115 Q 38.553 51.724 38.87 51.439 A 0.994 0.994 0 0 0 39 51.3 L 38.4 51.2 Q 37.2 51.2 35.2 52.2 A 8.776 8.776 0 0 1 33.878 52.87 Q 33.103 53.179 32.369 53.266 A 4.839 4.839 0 0 1 31.8 53.3 Q 31.515 53.3 31.343 53.21 A 0.461 0.461 0 0 1 31.1 52.9 L 33.1 50.9 Q 34.479 50.801 36.538 48.18 A 22.076 22.076 0 0 0 36.6 48.1 A 7.024 7.024 0 0 0 34.887 48.326 Q 34.142 48.513 33.34 48.856 A 13.756 13.756 0 0 0 32.6 49.2 A 4.38 4.38 0 0 0 32.377 49.263 Q 31.954 49.394 31.15 49.7 A 6.185 6.185 0 0 1 29.921 50.034 A 5.212 5.212 0 0 1 29.1 50.1 L 29.1 49.4 L 28.3 49.7 A 25.208 25.208 0 0 0 28.539 50.108 Q 28.971 50.831 29.8 52.15 Q 30.9 53.9 31.9 55.7 L 31.9 56.3 Q 32.468 56.3 33.235 55.575 A 7 7 0 0 0 33.6 55.2 A 9.342 9.342 0 0 1 33.986 54.799 Q 34.586 54.213 34.963 54.118 A 0.564 0.564 0 0 1 35.1 54.1 Q 35.193 54.1 35.414 54.186 A 3.625 3.625 0 0 1 35.45 54.2 Q 35.656 54.282 35.76 54.365 A 0.459 0.459 0 0 1 35.8 54.4 A 1.018 1.018 0 0 1 35.372 54.937 Q 35.108 55.109 34.7 55.2 Q 34.7 55.297 34.84 55.487 A 2.008 2.008 0 0 0 34.85 55.5 Q 35 55.7 35.1 55.7 A 1.554 1.554 0 0 0 35.428 55.653 Q 36.211 55.473 38.207 54.612 A 67.472 67.472 0 0 0 38.35 54.55 A 50.338 50.338 0 0 0 38.971 54.276 Q 40.982 53.371 41 53.105 A 0.07 0.07 0 0 0 41 53.1 A 3.521 3.521 0 0 0 40.923 52.894 Q 40.836 52.679 40.697 52.395 A 13.102 13.102 0 0 0 40.65 52.3 Q 40.4 51.8 40.2 51.3 Z M 15.8 33.4 L 15.9 33 L 15 33.1 L 5.5 38.3 L 4.7 37.8 A 2.999 2.999 0 0 1 5.102 37.334 Q 5.815 36.639 7.428 35.616 A 40.903 40.903 0 0 1 8.1 35.2 A 43.377 43.377 0 0 0 9.43 34.359 Q 10.775 33.472 11.6 32.75 Q 12.792 31.707 12.8 30.714 A 1.671 1.671 0 0 0 12.8 30.7 Q 12.3 30.7 11.3 31.35 A 13.8 13.8 0 0 1 10.95 31.571 Q 10.426 31.889 10.156 31.971 A 0.556 0.556 0 0 1 10 32 A 1.268 1.268 0 0 0 9.629 32.074 Q 8.731 32.366 6.5 33.8 A 247.163 247.163 0 0 1 5.863 34.177 Q 3.872 35.348 3.532 35.488 A 0.517 0.517 0 0 1 3.5 35.5 L 3.3 38.1 Q 3.3 40.331 3.655 41.556 A 3.827 3.827 0 0 0 3.9 42.2 Q 4.472 41.465 6.545 39.729 A 92.171 92.171 0 0 1 7.55 38.9 Q 9.877 37.007 10.929 36.482 A 2.162 2.162 0 0 1 11.4 36.3 A 1.679 1.679 0 0 0 12.314 36.016 Q 12.583 35.844 12.845 35.568 A 4.772 4.772 0 0 0 13.3 35 Q 13.69 34.376 14.111 33.995 A 2.891 2.891 0 0 1 14.35 33.8 A 1.968 1.968 0 0 1 15.01 33.494 Q 15.276 33.423 15.587 33.406 A 3.775 3.775 0 0 1 15.8 33.4 Z M 7 26.1 L 7.1 26.4 A 0.139 0.139 0 0 1 7.072 26.459 Q 6.945 26.65 6.248 27.351 A 47.227 47.227 0 0 1 6.15 27.45 Q 5.2 28.4 4.7 28.8 Q 5.755 28.704 7.085 27.597 A 10.295 10.295 0 0 0 7.2 27.5 A 1.51 1.51 0 0 0 7.298 27.445 Q 7.559 27.288 8.25 26.8 Q 9.1 26.2 10.2 26.2 A 0.479 0.479 0 0 0 10.313 26.184 Q 10.493 26.139 10.814 25.972 A 7.106 7.106 0 0 0 10.95 25.9 A 3.786 3.786 0 0 0 11.232 25.731 Q 11.556 25.516 11.7 25.3 Q 11.7 24.434 11.515 22.548 A 87.35 87.35 0 0 0 11.5 22.4 Q 11.3 20.4 11.3 19.3 L 11.4 18.1 A 57.572 57.572 0 0 0 10.65 18.63 Q 9.608 19.377 7.875 20.662 A 523.68 523.68 0 0 0 6.75 21.5 A 120.669 120.669 0 0 0 5.965 22.091 Q 3.484 23.973 3.403 24.281 A 0.075 0.075 0 0 0 3.4 24.3 Q 3.4 24.397 3.54 24.587 A 2.008 2.008 0 0 0 3.55 24.6 A 0.618 0.618 0 0 0 3.649 24.705 A 0.384 0.384 0 0 0 3.9 24.8 L 4.7 24.1 L 10.1 21.3 L 10.5 21.3 A 1.072 1.072 0 0 1 10.267 21.91 Q 9.731 22.663 7.96 23.646 A 25.453 25.453 0 0 1 7 24.15 L 3.1 26.1 L 3.1 29.2 Q 3.5 28.8 4.95 27.85 A 14.305 14.305 0 0 0 5.736 27.299 Q 6.489 26.73 6.906 26.219 A 3.635 3.635 0 0 0 7 26.1 Z M 36.3 47.3 L 37.1 47.4 L 37.4 48.5 L 34.7 51.3 L 34.7 51.7 A 8.508 8.508 0 0 0 35.581 51.487 Q 36.045 51.35 36.564 51.151 A 18.494 18.494 0 0 0 37.3 50.85 A 11.893 11.893 0 0 0 38.159 50.439 Q 38.99 49.997 39.467 49.532 A 3.323 3.323 0 0 0 39.5 49.5 A 0.505 0.505 0 0 0 39.429 49.284 Q 39.183 48.816 38.085 47.689 A 37.749 37.749 0 0 0 37.75 47.35 L 35.4 45 Q 35 45 34.25 45.7 Q 33.693 46.22 33.33 46.464 A 2.127 2.127 0 0 1 33.1 46.6 A 0.676 0.676 0 0 0 33.073 46.404 A 0.576 0.576 0 0 0 33 46.25 L 32.9 46.1 A 0.127 0.127 0 0 1 32.929 46.041 Q 33.058 45.862 33.757 45.238 A 37.551 37.551 0 0 1 33.8 45.2 A 9.752 9.752 0 0 0 34.155 44.869 Q 34.722 44.313 34.8 44 L 34.3 43.9 A 3.676 3.676 0 0 0 33.286 44.05 Q 32.88 44.166 32.457 44.372 A 6.133 6.133 0 0 0 32.4 44.4 A 45.271 45.271 0 0 1 32.05 44.573 Q 31.344 44.919 31.1 45 A 5.267 5.267 0 0 0 31 45.052 Q 30.753 45.183 30.113 45.537 A 201.916 201.916 0 0 0 30 45.6 Q 29.1 46.1 28.3 46.2 A 2.465 2.465 0 0 0 28.29 45.971 Q 28.246 45.5 28 45.5 A 0.345 0.345 0 0 0 27.84 45.553 Q 27.515 45.734 26.848 46.542 A 16.817 16.817 0 0 0 26.8 46.6 A 9.693 9.693 0 0 1 26.848 46.698 Q 26.975 46.959 27.3 47.65 A 3.921 3.921 0 0 0 27.628 48.224 Q 27.848 48.54 28.112 48.759 A 2.214 2.214 0 0 0 28.3 48.9 Q 28.557 48.729 29.655 47.862 A 192.423 192.423 0 0 0 30.05 47.55 Q 31.165 46.665 31.896 46.284 A 3.655 3.655 0 0 1 32.3 46.1 A 2.3 2.3 0 0 1 32.278 46.43 Q 32.226 46.789 32.05 47 A 2.089 2.089 0 0 1 31.865 47.192 Q 31.658 47.385 31.331 47.611 A 8.631 8.631 0 0 1 31.2 47.7 Q 30.756 47.996 30.476 48.292 A 2.403 2.403 0 0 0 30.3 48.5 Q 31.106 48.5 32.183 48.229 A 15.494 15.494 0 0 0 33.3 47.9 Q 34.88 47.426 35.835 47.327 A 4.513 4.513 0 0 1 36.3 47.3 Z M 12.4 44.9 L 13 45 L 12.5 45.8 L 10.1 47.5 Q 8.204 48.819 7.09 49.696 A 23.988 23.988 0 0 0 6.65 50.05 Q 5.5 51 5.5 51.7 L 12.5 49.4 A 4.809 4.809 0 0 0 13.072 49.369 Q 14.2 49.233 14.2 48.5 Q 14.2 47.428 13.588 44.657 A 84.664 84.664 0 0 0 13.3 43.4 L 4.7 48.5 L 4.7 49.7 L 5.1 49.7 A 3 3 0 0 0 6.451 49.369 A 4.077 4.077 0 0 0 7.05 49 Q 7.688 48.53 8.485 47.789 A 31.751 31.751 0 0 0 9.3 47 Q 10.4 45.9 11.05 45.4 A 2.611 2.611 0 0 1 11.607 45.067 A 1.986 1.986 0 0 1 12.4 44.9 Z M 8.3 29.5 L 8.3 28.8 A 5.98 5.98 0 0 1 8.539 28.631 Q 8.971 28.34 9.8 27.85 A 10.064 10.064 0 0 1 10.283 27.581 Q 10.991 27.214 11.372 27.2 A 0.808 0.808 0 0 1 11.4 27.2 A 1.565 1.565 0 0 1 11.196 27.487 Q 10.671 28.105 8.99 29.502 A 83.131 83.131 0 0 1 8.2 30.15 A 97.826 97.826 0 0 1 7.017 31.094 Q 5.059 32.631 4.2 33.1 L 4.2 33.6 A 21.554 21.554 0 0 1 5.25 33.013 Q 6.528 32.341 8.35 31.55 A 152.991 152.991 0 0 0 9.275 31.145 Q 11.131 30.325 11.7 30 L 12.3 30 A 13.339 13.339 0 0 0 12.229 28.582 Q 12.094 27.319 11.7 26.4 A 3.034 3.034 0 0 1 11.521 26.507 Q 11.085 26.751 9.813 27.393 A 221.9 221.9 0 0 1 9.2 27.7 Q 6.727 28.936 5.24 29.867 A 19.383 19.383 0 0 0 4.65 30.25 A 4.428 4.428 0 0 0 3.849 30.932 A 2.706 2.706 0 0 0 3.1 32.8 Q 4 32.1 5.85 30.8 Q 7.352 29.744 8.03 29.546 A 0.985 0.985 0 0 1 8.3 29.5 Z M 26.8 38.6 A 17.661 17.661 0 0 0 30.749 38.132 A 23.408 23.408 0 0 0 33.8 37.2 A 22.458 22.458 0 0 0 37.407 35.473 A 17.859 17.859 0 0 0 40.05 33.55 Q 41.556 32.221 42.173 30.909 A 4.224 4.224 0 0 0 42.6 29.1 Q 41.1 30.1 39.15 31.1 Q 37.354 32.021 36.534 32.518 A 11.165 11.165 0 0 0 36.4 32.6 Q 34.1 33.9 31.6 35.35 Q 29.1 36.8 26.8 38.6 Z M 40.7 23.8 L 37.1 26.1 L 37.1 26.5 Q 37.476 26.5 39.265 25.793 A 57.91 57.91 0 0 0 39.5 25.7 A 174.043 174.043 0 0 1 40.089 25.489 Q 41.981 24.816 42.191 24.8 A 0.123 0.123 0 0 1 42.2 24.8 Q 42.4 24.8 42.85 24.95 A 3.062 3.062 0 0 0 43.301 25.065 A 2.364 2.364 0 0 0 43.7 25.1 A 1.639 1.639 0 0 1 43.395 26.034 Q 43.07 26.512 42.4 26.95 A 16.304 16.304 0 0 1 41.214 27.659 Q 40.561 28.011 39.95 28.25 A 118.343 118.343 0 0 0 39.552 28.406 Q 38.763 28.719 38.6 28.8 L 38.6 29.2 Q 40.931 28.268 42.356 28.06 A 5.192 5.192 0 0 1 43.1 28 A 0.606 0.606 0 0 0 43.564 27.766 Q 43.911 27.369 44.1 26.3 A 19.56 19.56 0 0 0 44.354 24.117 A 24.425 24.425 0 0 0 44.4 22.6 L 44.3 21.2 Q 43.816 21.765 41.77 23.111 A 74.298 74.298 0 0 1 40.7 23.8 Z M 3 13 L 3.5 13 Q 5.1 9.5 12.2 3.9 L 12.2 3.5 Q 11.551 3.5 10.607 4.256 A 8.805 8.805 0 0 0 10.15 4.65 Q 9.105 5.611 8.794 5.839 A 0.735 0.735 0 0 1 8.7 5.9 Q 8.566 5.9 8.477 5.855 A 0.296 0.296 0 0 1 8.4 5.8 A 0.451 0.451 0 0 1 8.348 5.739 Q 8.3 5.67 8.3 5.6 A 15.153 15.153 0 0 0 6.714 6.258 Q 4.891 7.15 4.1 8.3 Q 3.324 9.429 3.095 11.306 A 14.062 14.062 0 0 0 3 13 Z M 36.3 60.4 A 4.328 4.328 0 0 0 36.634 60.897 Q 37.188 61.6 37.8 61.6 A 1.149 1.149 0 0 0 38.718 61.164 A 1.798 1.798 0 0 0 38.9 60.9 A 10.597 10.597 0 0 0 39.323 60.075 A 13.893 13.893 0 0 0 39.65 59.3 Q 39.987 58.434 40.185 58.031 A 4.764 4.764 0 0 1 40.2 58 Q 40.388 57.812 41.549 57.314 A 34.811 34.811 0 0 1 41.7 57.25 A 11.129 11.129 0 0 0 42.125 57.06 Q 42.944 56.673 42.996 56.432 A 0.151 0.151 0 0 0 43 56.4 A 0.685 0.685 0 0 0 42.962 56.187 Q 42.885 55.952 42.65 55.65 Q 42.3 55.2 42 55.2 A 1.595 1.595 0 0 0 41.442 55.315 Q 40.664 55.608 39.55 56.65 A 39.635 39.635 0 0 0 38.52 57.647 Q 37.677 58.495 37.1 59.2 A 2.565 2.565 0 0 0 37.703 59.017 Q 37.96 58.904 38.227 58.733 A 4.616 4.616 0 0 0 38.35 58.65 Q 39 58.2 39.4 58 A 0.337 0.337 0 0 1 39.5 58.24 A 0.444 0.444 0 0 1 39.5 58.25 L 39.5 58.4 A 0.914 0.914 0 0 1 39.309 58.942 Q 39.022 59.339 38.3 59.7 A 10.88 10.88 0 0 1 37.589 60.026 Q 36.881 60.319 36.346 60.394 A 2.982 2.982 0 0 1 36.3 60.4 Z M 31.9 11.4 L 31.9 12 Q 32.4 12 33.45 11.1 Q 34.5 10.2 35.5 9.2 A 57.091 57.091 0 0 1 36.222 8.49 Q 37.194 7.552 37.72 7.158 A 4.524 4.524 0 0 1 37.8 7.1 A 2.679 2.679 0 0 0 37.258 7.174 Q 35.949 7.461 32.613 8.853 A 110.894 110.894 0 0 0 32.5 8.9 A 52.162 52.162 0 0 0 31.149 9.486 Q 28.716 10.587 28.29 11.174 A 0.398 0.398 0 0 0 28.2 11.4 Q 28.2 12.4 29.9 12.6 A 0.882 0.882 0 0 0 30.167 12.554 Q 30.414 12.475 30.728 12.261 A 4.669 4.669 0 0 0 30.95 12.1 A 44.266 44.266 0 0 1 31.253 11.869 Q 31.675 11.55 31.9 11.4 Z M 4.485 56.95 A 0.944 0.944 0 0 0 4.7 57.2 Q 6.381 56.112 8.846 54.095 A 91.021 91.021 0 0 0 8.9 54.05 Q 11.4 52 12.5 50.5 Q 11.2 50.5 9.7 51.1 Q 8.2 51.7 7.8 51.8 A 13.82 13.82 0 0 1 6.08 52.525 A 10.918 10.918 0 0 1 4.7 52.9 A 6.853 6.853 0 0 0 4.463 53.534 Q 4.36 53.86 4.307 54.16 A 4.139 4.139 0 0 0 4.3 54.2 A 7.317 7.317 0 0 0 4.214 54.989 A 9.044 9.044 0 0 0 4.2 55.5 Q 4.2 56.482 4.485 56.95 Z M 36.6 6.3 L 36.6 5.9 A 0.422 0.422 0 0 0 36.451 5.583 Q 36.307 5.449 36.024 5.352 A 2.646 2.646 0 0 0 35.85 5.3 A 6.59 6.59 0 0 0 35.222 5.163 Q 34.91 5.112 34.628 5.102 A 3.746 3.746 0 0 0 34.5 5.1 A 1.72 1.72 0 0 0 33.957 5.212 Q 32.8 5.614 30.3 7.45 Q 27.1 9.8 27.1 10.4 A 2.431 2.431 0 0 0 27.691 10.309 Q 28.944 9.984 31.6 8.5 Q 34.825 6.708 36.284 6.361 A 3.527 3.527 0 0 1 36.6 6.3 Z M 31.5 13 L 31.5 13.5 Q 32.429 13.5 33.53 13.112 A 9.09 9.09 0 0 0 33.7 13.05 A 13.981 13.981 0 0 0 35.322 12.326 A 12.169 12.169 0 0 0 35.9 12 A 17.941 17.941 0 0 1 37.247 11.292 Q 38.608 10.655 39.626 10.53 A 3.913 3.913 0 0 1 40.1 10.5 A 0.989 0.989 0 0 1 40.124 10.293 Q 40.168 10.089 40.292 9.821 A 4.222 4.222 0 0 1 40.35 9.7 A 5.537 5.537 0 0 0 40.447 9.496 Q 40.6 9.156 40.6 9 Q 40.373 8.773 40.032 8.518 A 8.982 8.982 0 0 0 39.8 8.35 A 6.63 6.63 0 0 0 39.535 8.173 Q 39.29 8.019 39.107 7.941 A 1.418 1.418 0 0 0 39 7.9 A 1.185 1.185 0 0 0 38.57 8.023 Q 37.356 8.556 33.7 11.4 Q 33.2 11.8 32.65 12.15 Q 32.1 12.5 31.5 13 Z M 34.808 59.024 A 12.548 12.548 0 0 0 35.5 59.6 A 3.474 3.474 0 0 1 35.951 58.654 Q 36.487 57.838 37.554 56.947 A 15.254 15.254 0 0 1 38.05 56.55 A 20.782 20.782 0 0 1 39.34 55.631 Q 40.655 54.773 41.727 54.423 A 6.129 6.129 0 0 1 41.8 54.4 Q 41.8 54.31 41.677 54.219 A 0.707 0.707 0 0 0 41.65 54.2 A 0.931 0.931 0 0 0 41.571 54.152 Q 41.489 54.109 41.425 54.101 A 0.22 0.22 0 0 0 41.4 54.1 Q 41.4 54.2 36.9 55.9 A 92.438 92.438 0 0 0 36.169 56.139 Q 34.244 56.778 33.691 57.074 A 0.862 0.862 0 0 0 33.5 57.2 Q 33.658 57.988 34.808 59.024 Z M 36.3 22.9 L 36.2 23.4 Q 36.2 24.9 36.8 24.9 Q 38.1 24.9 40.608 22.657 A 28.317 28.317 0 0 0 41 22.3 A 2.751 2.751 0 0 1 41.105 22.202 Q 41.374 21.961 42.118 21.357 A 113.836 113.836 0 0 1 42.25 21.25 A 11.141 11.141 0 0 1 42.882 20.772 Q 43.211 20.543 43.511 20.377 A 4.433 4.433 0 0 1 44.1 20.1 L 44.1 19.7 Q 43 20.2 41.15 20.7 A 555.946 555.946 0 0 0 40.321 20.925 Q 39.13 21.248 38.6 21.4 L 38.6 22.1 L 36.3 22.9 Z M 11.4 41.4 L 6.2 43.4 A 2.436 2.436 0 0 1 5.726 43.932 A 2.077 2.077 0 0 1 5.2 44.25 Q 4.8 44.417 4.578 44.65 A 1.031 1.031 0 0 0 4.4 44.9 A 1.091 1.091 0 0 0 4.322 45.132 Q 4.2 45.65 4.2 46.9 A 2.969 2.969 0 0 1 4.992 45.618 A 4.035 4.035 0 0 1 5.5 45.2 A 12.054 12.054 0 0 1 6.27 44.707 Q 7.084 44.225 8.2 43.7 Q 10.622 42.396 11.308 41.526 A 1.949 1.949 0 0 0 11.4 41.4 Z M 35.4 20.3 A 2.47 2.47 0 0 0 36.126 20.173 Q 37.201 19.838 38.891 18.616 A 25.156 25.156 0 0 0 39.05 18.5 Q 41.256 16.879 42.368 15.664 A 9.135 9.135 0 0 0 42.6 15.4 A 6.139 6.139 0 0 0 42.275 15.465 Q 41.584 15.62 40.1 16.05 Q 38.2 16.6 37.1 17 A 3.172 3.172 0 0 0 36.545 17.204 Q 35.916 17.511 35.7 18.05 A 3.259 3.259 0 0 0 35.543 18.584 Q 35.423 19.153 35.404 19.972 A 13.771 13.771 0 0 0 35.4 20.3 Z M 37.4 20.1 L 37.1 20.9 Q 37.552 20.9 38.403 20.729 A 21.262 21.262 0 0 0 39 20.6 A 6.81 6.81 0 0 0 39.823 20.358 Q 40.227 20.209 40.549 20.02 A 3.142 3.142 0 0 0 41 19.7 L 41 20.1 Q 41.1 20.1 42.6 19.65 A 13.221 13.221 0 0 0 43.071 19.5 Q 44.1 19.148 44.1 18.9 A 0.917 0.917 0 0 0 44.081 18.728 Q 44.028 18.451 43.82 17.994 A 7.895 7.895 0 0 0 43.8 17.95 A 3.534 3.534 0 0 0 43.582 17.544 Q 43.455 17.344 43.314 17.193 A 1.658 1.658 0 0 0 43.1 17 Q 42.4 17.5 40.65 18.45 Q 38.9 19.4 37.4 20.1 Z M 35.1 15.8 A 9.231 9.231 0 0 0 36.302 15.155 Q 36.895 14.782 37.535 14.282 A 22.051 22.051 0 0 0 38.7 13.3 A 15.44 15.44 0 0 1 40.554 11.711 A 13.867 13.867 0 0 1 41 11.4 A 0.222 0.222 0 0 0 40.927 11.355 Q 40.795 11.3 40.5 11.3 A 3.956 3.956 0 0 0 39.723 11.384 Q 38.979 11.534 38.05 11.95 A 30.168 30.168 0 0 0 36.335 12.782 A 24.644 24.644 0 0 0 35.4 13.3 A 143.83 143.83 0 0 0 34.982 13.545 Q 34.144 14.038 33.9 14.2 Q 33.9 14.924 34.882 15.648 A 5.656 5.656 0 0 0 35.1 15.8 Z M 44.9 60 L 38.6 62.7 Q 39.2 63.6 40.2 63.9 Q 41.5 63.3 43 62.2 Q 44.5 61.1 44.9 60 Z M 24.8 42.2 A 1.085 1.085 0 0 0 25.127 42.135 Q 25.827 41.905 27.35 40.85 Q 28.943 39.747 29.635 39.278 A 43.906 43.906 0 0 1 29.9 39.1 A 3.478 3.478 0 0 0 29.338 39.155 Q 28.267 39.334 26.2 40.1 A 73.119 73.119 0 0 0 25.567 40.338 Q 23.584 41.093 23.503 41.285 A 0.039 0.039 0 0 0 23.5 41.3 Q 23.5 41.473 23.911 41.758 A 4.229 4.229 0 0 0 24.05 41.85 Q 24.503 42.138 24.718 42.189 A 0.36 0.36 0 0 0 24.8 42.2 Z M 41.6 12.6 A 1.899 1.899 0 0 0 41.151 12.725 Q 40.431 13.008 39.222 13.897 A 24.661 24.661 0 0 0 38.95 14.1 A 15.171 15.171 0 0 0 38.321 14.6 Q 37.373 15.401 37.161 15.922 A 0.742 0.742 0 0 0 37.1 16.2 A 3.953 3.953 0 0 1 37.701 15.878 Q 38.373 15.583 39.4 15.347 A 18.799 18.799 0 0 1 40.1 15.2 Q 41.732 14.889 42.579 14.458 A 2.889 2.889 0 0 0 43 14.2 A 6.845 6.845 0 0 1 42.798 13.988 Q 42.559 13.728 42.25 13.35 Q 41.836 12.844 41.633 12.634 A 2.688 2.688 0 0 0 41.6 12.6 Z M 15.1 60 L 14.5 60 L 9.4 63.2 A 10.147 10.147 0 0 0 12.784 62.605 A 11.707 11.707 0 0 0 13.2 62.45 A 4.032 4.032 0 0 0 14.075 61.985 Q 14.696 61.539 14.941 60.905 A 2.492 2.492 0 0 0 15.1 60 Z M 42.2 64.3 L 43 65 A 9.749 9.749 0 0 0 43.694 64.972 Q 44.446 64.918 45.486 64.758 A 41.284 41.284 0 0 0 46.15 64.65 Q 48.2 64.3 48.2 63.7 Q 48.129 63.488 47.934 63.251 A 2.858 2.858 0 0 0 47.75 63.05 A 5.382 5.382 0 0 0 47.628 62.931 Q 47.389 62.707 47.305 62.7 A 0.063 0.063 0 0 0 47.3 62.7 A 2.245 2.245 0 0 0 46.968 62.731 Q 46.252 62.842 44.65 63.35 A 44.55 44.55 0 0 0 43.939 63.581 Q 42.531 64.054 42.203 64.298 A 0.716 0.716 0 0 0 42.2 64.3 Z M 39.8 60.8 L 39.8 61.2 L 41.8 60.5 A 51.867 51.867 0 0 0 42.456 60.261 Q 44.577 59.471 44.6 59.206 A 0.067 0.067 0 0 0 44.6 59.2 L 43.8 57.6 Q 42.646 59.001 40.677 60.266 A 21.459 21.459 0 0 1 39.8 60.8 Z M 9.1 3.8 Q 9.1 3.6 8.85 3.35 A 1.404 1.404 0 0 0 8.728 3.241 Q 8.585 3.128 8.46 3.105 A 0.343 0.343 0 0 0 8.4 3.1 A 1.42 1.42 0 0 0 7.91 3.201 Q 7.222 3.457 6.197 4.364 A 14.708 14.708 0 0 0 6.1 4.45 A 16.359 16.359 0 0 0 5.419 5.097 Q 4.758 5.765 4.417 6.302 A 3.096 3.096 0 0 0 4.2 6.7 A 1.195 1.195 0 0 0 4.583 6.619 Q 5.201 6.4 6.375 5.591 A 30.857 30.857 0 0 0 7.2 5 Q 8.538 3.997 8.967 3.832 A 0.4 0.4 0 0 1 9.1 3.8 Z M 36.3 28 L 36.3 28.5 A 0.793 0.793 0 0 0 36.474 28.47 Q 36.984 28.341 38.65 27.65 A 76.781 76.781 0 0 0 39.537 27.276 Q 40.631 26.806 41.187 26.516 A 6.47 6.47 0 0 0 41.4 26.4 L 41 26.1 L 36.3 28 Z M 7.8 26.4 L 7.8 25.3 L 11 22.1 A 3.808 3.808 0 0 1 10.819 23.295 A 3.225 3.225 0 0 1 10.15 24.45 Q 9.5 25.176 8.471 25.932 A 18.2 18.2 0 0 1 7.8 26.4 Z M 14.7 57.9 A 4.854 4.854 0 0 0 14.677 57.409 Q 14.574 56.4 14 56.4 A 1.129 1.129 0 0 0 13.611 56.478 Q 13.105 56.665 12.4 57.3 A 16.44 16.44 0 0 0 11.885 57.783 Q 11.398 58.26 11.117 58.635 A 3.66 3.66 0 0 0 11 58.8 A 17.3 17.3 0 0 0 11.56 58.629 Q 12.056 58.469 12.65 58.25 A 5.761 5.761 0 0 1 14.356 57.909 A 6.7 6.7 0 0 1 14.7 57.9 Z M 6.7 3.1 A 13.205 13.205 0 0 0 5.569 3.144 Q 3.1 3.358 3.1 4.6 A 0.278 0.278 0 0 0 3.107 4.655 Q 3.133 4.776 3.25 5.05 Q 3.4 5.4 3.5 5.6 Q 4.2 5.6 4.7 5.15 A 6.009 6.009 0 0 0 5.088 4.764 Q 5.277 4.56 5.479 4.312 A 13.334 13.334 0 0 0 5.8 3.9 Q 6.4 3.1 6.7 3.1 Z M 29.6 44.2 L 30.1 44.3 A 1.157 1.157 0 0 0 30.318 44.273 Q 30.694 44.198 31.459 43.91 A 27.79 27.79 0 0 0 32 43.7 A 21.709 21.709 0 0 0 32.471 43.506 Q 33.312 43.146 33.466 42.97 A 0.114 0.114 0 0 0 33.5 42.9 Q 33.5 42.745 33.41 42.56 A 1.436 1.436 0 0 0 33.35 42.45 Q 33.2 42.2 33.1 42.2 Q 32.3 42.2 31.2 42.85 Q 30.421 43.31 29.943 43.795 A 3.372 3.372 0 0 0 29.6 44.2 Z M 28.8 41.4 L 32.7 40.3 L 32.3 39.4 Q 29.526 40.391 28.813 41.381 A 1.758 1.758 0 0 0 28.8 41.4 Z M 27.8 5.6 L 28 5.9 Q 28.281 5.713 29.393 5.175 A 70.885 70.885 0 0 1 29.55 5.1 A 6.662 6.662 0 0 0 29.975 4.879 Q 30.8 4.406 30.8 4 A 1.281 1.281 0 0 1 30.424 3.938 Q 30.054 3.824 29.6 3.5 A 0.203 0.203 0 0 0 29.498 3.539 Q 29.258 3.693 28.7 4.45 Q 28.045 5.339 27.828 5.571 A 1.204 1.204 0 0 1 27.8 5.6 Z M 6.7 41.1 L 5.9 42.7 A 1.829 1.829 0 0 0 6.954 42.357 Q 7.215 42.178 7.46 41.904 A 3.794 3.794 0 0 0 7.55 41.8 A 3.523 3.523 0 0 0 8.043 41.038 A 2.661 2.661 0 0 0 8.3 39.9 A 0.696 0.696 0 0 0 8.021 39.965 Q 7.72 40.097 7.35 40.5 Q 6.902 40.988 6.753 41.079 A 0.116 0.116 0 0 1 6.7 41.1 Z M 26.8 43.8 L 26.8 44.6 L 27.5 44.6 L 29.6 42.7 L 29.1 42.6 Q 28.795 42.6 28.259 42.861 A 6.823 6.823 0 0 0 27.9 43.05 Q 27.1 43.5 26.8 43.8 Z M 21.5 4.4 L 21.6 4.7 Q 22.213 4.47 22.972 4.123 A 33.626 33.626 0 0 0 23.45 3.9 A 24.847 24.847 0 0 0 23.696 3.781 Q 24.483 3.396 24.5 3.304 A 0.022 0.022 0 0 0 24.5 3.3 L 24.4 3.2 A 0.451 0.451 0 0 1 24.348 3.139 Q 24.3 3.07 24.3 3 A 1.579 1.579 0 0 0 24.206 3.004 Q 23.979 3.018 23.444 3.088 A 40.261 40.261 0 0 0 23.35 3.1 Q 22.6 3.2 22.05 3.5 Q 21.525 3.786 21.501 4.345 A 1.265 1.265 0 0 0 21.5 4.4 Z M 11.7 34.4 L 11.7 33.9 L 9.4 35.1 L 9.4 35.5 L 11.7 34.4 Z M 11.7 2.3 L 9.4 2.8 Q 9.4 2.89 9.523 2.981 A 0.707 0.707 0 0 0 9.55 3 A 0.931 0.931 0 0 0 9.629 3.048 Q 9.711 3.091 9.775 3.099 A 0.22 0.22 0 0 0 9.8 3.1 A 5.481 5.481 0 0 0 10.423 3.068 Q 11.053 2.995 11.378 2.761 A 0.795 0.795 0 0 0 11.7 2.3 Z M 26 38.6 L 24.4 39.4 L 25 39.5 Q 25.597 39.5 25.798 39.351 A 0.353 0.353 0 0 0 25.8 39.35 A 0.355 0.355 0 0 0 25.903 39.218 Q 26 39.018 26 38.6 Z" vector-effect="non-scaling-stroke"/></g></svg>
